<svg version="1.1" id="Layer_1" xmlns="http://www.w3.org/2000/svg" xmlns:xlink="http://www.w3.org/1999/xlink" x="0px" y="0px"
	 viewBox="0 0 32 32" style="enable-background:new 0 0 32 32;" xml:space="preserve">
<style type="text/css">
	.White{fill:#FFFFFF;}
	.Blue{fill:#1177D7;}
</style>
<path class="White" d="M30,24v-4l-10-8V4c0-2.2-1.8-4-4-4s-4,1.8-4,4v8L2,20v4l10-2.9V26l-2,2v4l6-2l6,2v-4l-2-2v-4.9L30,24z"/>
<path class="Blue" d="M28,22v-2l-10-7V4c0-1.1-0.9-2-2-2s-2,0.9-2,2v9L4,20v2l10-3v7l-2,2v2l4-2l4,2v-2l-2-2v-7L28,22z"/>
</svg>
