<?xml version="1.0" encoding="utf-8"?>
<svg xmlns="http://www.w3.org/2000/svg" width="32" height="32" viewBox="0 0 64 64">
  <radialGradient id="VSzxfUwd4IxClyAcUTdIFa" cx="32" cy="31.5" r="29.251" gradientUnits="userSpaceOnUse">
    <stop offset="0" stop-color="#efdcb1" />
    <stop offset="0" stop-color="#efdcb1" />
    <stop offset=".092" stop-color="#f2e0b9" />
    <stop offset=".415" stop-color="#f9eccf" />
    <stop offset=".724" stop-color="#fdf4dc" />
    <stop offset="1" stop-color="#fff6e1" />
  </radialGradient>
  <path fill="url(#VSzxfUwd4IxClyAcUTdIFa)" d="M55,32h-0.712H52c-1.71,0-3.086-1.431-2.996-3.161C49.089,27.216,50.545,26,52.17,26h4.33c2.627,0,4.747-2.282,4.477-4.962C60.741,18.704,58.634,17,56.288,17H48c-1.105,0-2-0.895-2-2c0-1.105,0.895-2,2-2h1.5c3.038,0,5.5-2.462,5.5-5.5C55,4.462,52.538,2,49.5,2h-10H32H14.5c-3.211,0-5.802,2.789-5.471,6.064C9.317,10.918,11.891,13,14.759,13H16c1.71,0,3.086,1.431,2.996,3.161C18.911,17.784,17.455,19,15.83,19H8.5c-3.211,0-5.803,2.789-5.471,6.064C3.317,27.918,5.891,30,8.759,30H12c1.215,0,2.176,1.083,1.973,2.336C13.813,33.319,12.889,34,11.893,34H8.5c-2.627,0-4.747,2.282-4.477,4.961C4.259,41.296,6.365,43,8.712,43H18l-3,8h-4c-2.75,0-5,2.25-5,5s2.25,5,5,5h8h21h6h6c3.3,0,6-2.7,6-6s-2.7-6-6-6h-8v-7h11c2.75,0,5-2.25,5-5S57.75,32,55,32z" />
  <linearGradient id="VSzxfUwd4IxClyAcUTdIFb" x1="31.5" x2="31.5" y1="52" y2="9.988" gradientUnits="userSpaceOnUse">
    <stop offset="0" stop-color="#155cde" />
    <stop offset=".278" stop-color="#1f7fe5" />
    <stop offset=".569" stop-color="#279ceb" />
    <stop offset=".82" stop-color="#2cafef" />
    <stop offset="1" stop-color="#2eb5f0" />
  </linearGradient>
  <path fill="url(#VSzxfUwd4IxClyAcUTdIFb)" d="M12.284,47.444L23.07,16.09c1.192-3.534,4.541-6.042,8.516-6.042 c3.917,0,7.266,2.508,8.459,6.042l10.672,31.012c0.17,0.57,0.284,1.141,0.284,1.711C51,51.662,48.673,54,45.834,54 c-2.328,0-4.257-1.539-4.939-3.592L38.75,44H23.7l-1.993,6.522C21.083,52.574,19.21,54,16.939,54C14.214,54,12,51.776,12,49.04 C12,48.47,12.114,47.957,12.284,47.444z M36.354,36l-2.725-8.736c-0.86-2.764-1.369-4.761-1.987-7.24h-0.681 c-0.618,2.478-1.127,4.477-1.988,7.24L26.249,36H36.354z" />
</svg>